#!OML:ASF C:\ViconDB\ViconDB\414\Spring2016\041811\Spring2016.ASF
:FULLY-SPECIFIED
:DEGREES
256
root 11.5732 17.4982 -7.62063 -177.103 -10.4928 -170.229
lowerback -0.39733 2.51276 -3.4248
upperback 0.45586 3.36675 1.07563
thorax 0.42847 1.66784 3.03915
lowerneck -12.3834 2.01697 -1.7689
upperneck 23.321 -3.07189 17.5662
head 9.75668 -0.443847 6.04737
rclavicle -4.49253e-014 -1.59028e-015
rhumerus -95.8202 35.9835 -123.286
rradius 89.1648
rwrist 28.8554
rhand -45.1572 -3.08917
rfingers 7.12502
rthumb -17.9349 -32.2822
lclavicle -4.49253e-014 -1.59028e-015
lhumerus -80.5056 -44.0591 116.559
lradius 80.9345
lwrist -30.4861
lhand -42.213 -1.9187
lfingers 7.12502
lthumb -15.1004 27.5105
rfemur 146.178 61.6965 -158.83
rtibia 32.5115
rfoot -67.4581 -51.8542
rtoes 5.77782
lfemur -41.4032 -14.9672 -10.3056
ltibia 43.978
lfoot -6.8845 -7.57456
ltoes -6.73446
257
root 11.5524 17.5107 -7.77015 -176.964 -9.91807 -170.337
lowerback -0.592911 2.61905 -3.35937
upperback 0.447797 3.51466 1.07852
thorax 0.521957 1.74048 3.01521
lowerneck -12.1314 2.04308 -1.90016
upperneck 23.3333 -2.93734 17.3892
head 9.68835 -0.416824 6.01601
rclavicle 2.82274e-014 -5.88403e-014
rhumerus -96.1808 36.2124 -123.792
rradius 88.945
rwrist 28.7509
rhand -45.7355 -3.5773
rfingers 7.12502
rthumb -18.4913 -32.7184
lclavicle 2.82274e-014 -5.88403e-014
lhumerus -80.0833 -43.7328 116.25
lradius 80.8654
lwrist -30.277
lhand -41.9858 -2.30236
lfingers 7.12502
lthumb -14.8815 27.1432
rfemur 146.544 59.4432 -158.69
rtibia 32.0573
rfoot -65.0052 -53.3607
rtoes 7.98156
lfemur -40.979 -14.6399 -10.4626
ltibia 44.299
lfoot -7.57072 -7.61766
ltoes -6.62947
258
root 11.5268 17.5206 -7.92463 -176.918 -9.39332 -170.54
lowerback -0.78595 2.69306 -3.25601
upperback 0.499778 3.6197 1.00623
thorax 0.686377 1.78968 2.89551
lowerneck -12.0736 2.08641 -1.91998
upperneck 23.5467 -2.85988 17.1958
head 9.73815 -0.398313 5.96626
rclavicle 4.31363e-014 -3.02153e-014
rhumerus -96.5535 36.526 -124.368
rradius 88.7659
rwrist 28.901
rhand -46.4849 -3.99522
rfingers 7.12502
rthumb -19.212 -33.0663
lclavicle 4.31363e-014 -3.02153e-014
lhumerus -79.7173 -43.6571 115.797
lradius 81.0369
lwrist -29.8673
lhand -41.4041 -2.56764
lfingers 7.12502
lthumb -14.321 26.9185
rfemur 146.633 57.0004 -158.847
rtibia 31.7405
rfoot -62.5102 -54.6609
rtoes 8.73642
lfemur -40.401 -14.3201 -10.835
ltibia 44.6051
lfoot -8.23688 -7.6912
ltoes -6.39469
259
root 11.4993 17.5296 -8.07681 -176.813 -8.84742 -170.713
lowerback -0.92618 2.75855 -3.07552
upperback 0.420182 3.71024 0.889031
thorax 0.695603 1.83743 2.6802
lowerneck -11.8526 2.18956 -1.83271
upperneck 23.8405 -2.77337 17.0444
head 9.78483 -0.378645 5.91326
rclavicle -4.17448e-015 -2.70347e-014
rhumerus -96.94 36.7047 -125.132
rradius 88.7371
rwrist 28.4628
rhand -46.5766 -4.11709
rfingers 7.12502
rthumb -19.3002 -33.1794
lclavicle -4.17448e-015 -2.70347e-014
lhumerus -79.7017 -43.4801 115.549
lradius 81.0678
lwrist -29.9056
lhand -41.3045 -2.11954
lfingers 7.12502
lthumb -14.2251 27.3733
rfemur 146.793 54.436 -158.803
rtibia 31.6726
rfoot -59.5654 -56.9077
rtoes 10.8665
lfemur -39.8843 -14.0504 -11.1696
ltibia 44.9026
lfoot -8.87197 -7.65421
ltoes -6.19302
260
root 11.4623 17.5354 -8.23238 -176.754 -8.22347 -171.126
lowerback -1.06162 2.86561 -2.96387
upperback 0.386264 3.85774 0.668951
thorax 0.748941 1.91188 2.4002
lowerneck -11.6732 2.26178 -1.55681
upperneck 24.2443 -2.70789 16.6002
head 9.87814 -0.371476 5.72211
rclavicle -1.27222e-014 -1.59028e-014
rhumerus -97.1092 36.8132 -125.787
rradius 88.7158
rwrist 27.9893
rhand -46.5002 -4.51626
rfingers 7.12502
rthumb -19.2268 -33.5858
lclavicle -1.27222e-014 -1.59028e-014
lhumerus -79.4809 -43.3698 114.989
lradius 81.0515
lwrist -29.9623
lhand -40.8746 -2.29829
lfingers 7.12502
lthumb -13.8108 27.2232
rfemur 146.542 51.9764 -159.239
rtibia 31.9614
rfoot -56.2312 -59.8678
rtoes 14.0015
lfemur -39.2607 -13.9557 -11.7874
ltibia 45.2285
lfoot -9.61929 -7.37647
ltoes -5.95502
261
root 11.4186 17.5315 -8.37986 -176.682 -7.69447 -171.553
lowerback -1.17727 2.81512 -2.9431
upperback 0.394579 3.79427 0.621793
thorax 0.83075 1.87887 2.34668
lowerneck -11.6017 2.40994 -1.94938
upperneck 24.6243 -2.51384 16.6648
head 9.97363 -0.314448 5.8558
rclavicle 3.95581e-014 -1.90833e-014
rhumerus -97.292 37.2842 -126.267
rradius 88.5972
rwrist 27.9757
rhand -46.4998 -4.44952
rfingers 7.12502
rthumb -19.2263 -33.5192
lclavicle 3.95581e-014 -1.90833e-014
lhumerus -78.8898 -42.9341 114.383
lradius 80.9547
lwrist -29.637
lhand -40.8355 -2.29887
lfingers 7.12502
lthumb -13.7731 27.2252
rfemur 146.008 49.9039 -159.794
rtibia 32.6829
rfoot -52.8128 -63.345
rtoes 16.5838
lfemur -38.7471 -13.8976 -12.4656
ltibia 45.6123
lfoot -10.3579 -7.12249
ltoes -5.90896
262
root 11.374 17.5188 -8.52225 -176.701 -7.28346 -172.061
lowerback -1.09936 2.81487 -2.86373
upperback 0.323855 3.7909 0.456479
thorax 0.731034 1.88039 2.12665
lowerneck -11.408 2.552 -1.94678
upperneck 25.078 -2.37371 16.4696
head 10.0771 -0.280525 5.81631
rclavicle -4.65156e-014 1.43125e-014
rhumerus -97.2245 37.333 -126.516
rradius 88.4313
rwrist 28.4606
rhand -46.324 -3.97842
rfingers 7.12502
rthumb -19.0573 -33.0648
lclavicle -4.65156e-014 1.43125e-014
lhumerus -78.7529 -42.7852 114.008
lradius 80.7597
lwrist -30.0386
lhand -40.847 -2.09901
lfingers 7.12502
lthumb -13.7842 27.4243
rfemur 145.03 48.0493 -160.605
rtibia 33.8965
rfoot -48.7025 -67.3731
rtoes 18.524
lfemur -38.1771 -14.0915 -13.2473
ltibia 46.0409
lfoot -11.2097 -6.71221
ltoes -5.67155
263
root 11.3293 17.4975 -8.65959 -176.704 -6.92667 -172.667
lowerback -1.05406 2.77817 -2.81445
upperback 0.303358 3.74041 0.269755
thorax 0.703106 1.85604 1.90477
lowerneck -11.2786 2.68765 -1.82058
upperneck 25.5185 -2.14193 15.9384
head 10.1755 -0.212144 5.64105
rclavicle -3.84648e-014 -3.18055e-014
rhumerus -97.0991 37.4612 -126.662
rradius 88.4862
rwrist 28.6664
rhand -46.4515 -3.56428
rfingers 7.12502
rthumb -19.1799 -32.6385
lclavicle -3.84648e-014 -3.18055e-014
lhumerus -78.5776 -42.7954 113.576
lradius 80.7279
lwrist -29.7952
lhand -40.4249 -2.59794
lfingers 7.12502
lthumb -13.3774 26.9526
rfemur 143.821 46.4358 -161.543
rtibia 35.6142
rfoot -42.5509 -72.3949
rtoes 22.2825
lfemur -37.6603 -14.2984 -14.1541
ltibia 46.4689
lfoot -11.9979 -6.34231
ltoes -5.60693
